OpenSim_Sub05_CSStiffKnee_LCS.mot
version=1
nRows=25
nColumns=11
inDegrees=no
endheader
time	Bot_Shank	2nd_Bot_Shank	2nd_Top_Shank	Top_Shank	Bot_Thigh	Med_Thigh	Top_Thigh	BNOx	BNOy	BNOZ
84.36000000	11118.21811156	11234.03437568	11685.83334886	11350.82272325	12038.46930086	11986.79865481	11832.27186725	228.94779009	-72.04235697	89.55946689
84.37000000	11114.09604888	11233.98281782	11682.47978699	11346.94975889	12037.12518676	11976.02329983	11841.19416579	229.23127643	-71.66694384	86.72029243
84.38000000	11109.37024416	11233.90643906	11678.99748482	11342.37758713	12036.42998844	11965.28259715	11849.69029442	229.36484207	-71.38791007	85.37047056
84.39000000	11104.34003710	11233.81072466	11675.44969697	11337.21749089	12036.34670546	11954.94708239	11857.29293727	229.36099291	-71.20364054	85.33289969
84.40000000	11099.30476740	11233.70115989	11671.89967812	11331.58075306	12036.83833739	11945.38729116	11863.53477847	229.23223485	-71.11252011	86.43047820
84.41000000	11094.56377475	11233.58323000	11668.41068291	11325.57865655	12037.86788380	11936.97375905	11867.94850216	228.99107379	-71.11293366	88.48610451
84.42000000	11090.41639884	11233.46242025	11665.04596598	11319.32248427	12039.39834424	11930.07702168	11870.06679248	228.65001562	-71.20326605	91.32267702
84.43000000	11087.16197936	11233.34421591	11661.86878200	11312.92351912	12041.39271828	11925.06761465	11869.42233356	228.22156624	-71.38190215	94.76309412
84.44000000	11085.09985601	11233.23410223	11658.94238562	11306.49304400	12043.81400550	11922.31607357	11865.54780954	227.71823156	-71.64722683	98.63025421
84.45000000	11084.52936848	11233.13756447	11656.33003148	11300.14234184	12046.62520544	11922.19293404	11857.97590455	227.15251746	-71.99762495	102.74705570
84.46000000	11085.74985646	11233.06008789	11654.09497423	11293.98269552	12049.78931769	11925.06873167	11846.23930273	226.53692986	-72.43148140	106.93639698
84.47000000	11089.06065964	11233.00715775	11652.30046854	11288.12538797	12053.26934179	11931.31400206	11829.87068822	225.88397464	-72.94718102	111.02117646
84.48000000	11094.67290028	11232.98300110	11650.99905785	11282.67029011	12057.01573280	11941.12363929	11808.57846313	225.20601489	-73.54099218	114.83639482
84.49000000	11102.14571853	11232.98254601	11650.16412307	11277.63293137	12060.88623381	11953.39443675	11783.36969521	224.51435819	-74.19354081	118.30649620
84.50000000	11110.74603425	11232.99655269	11649.73356426	11272.99103903	12064.69703419	11966.44137528	11755.83351805	223.81983905	-74.87844186	121.39601357
84.51000000	11119.73938891	11233.01576174	11649.64511412	11268.72216208	12068.26412730	11978.57669131	11727.56181078	223.13328973	-75.56927721	124.06966899
84.52000000	11128.39132397	11233.03091371	11649.83650533	11264.80384950	12071.40350646	11988.11262125	11700.14645257	222.46554251	-76.23962877	126.29218452
84.53000000	11135.96738088	11233.03274918	11650.24547058	11261.21365026	12073.93116505	11993.36140154	11675.17932257	221.82742966	-76.86307841	128.02828222
84.54000000	11141.73310113	11233.01200873	11650.80974256	11257.92911335	12075.66309640	11992.63526861	11654.25229992	221.22978344	-77.41320803	129.24268415
84.55000000	11145.01225927	11232.96034969	11651.46969179	11254.93806047	12076.43544613	11984.44024612	11638.81794148	220.68224621	-77.86594209	129.91772505
84.56000000	11145.72980603	11232.87889386	11652.19292078	11252.33436504	12076.29240408	11969.28294256	11628.89049413	220.18217592	-78.22138907	130.21756612
84.57000000	11144.16535382	11232.77434649	11652.96309742	11250.27446531	12075.40089501	11948.85020412	11623.63567906	219.71968338	-78.49392468	130.41363642
84.58000000	11140.60309898	11232.65348505	11653.76409728	11248.91560816	12073.92943001	11924.84413137	11622.20825040	219.28478577	-78.69810904	130.77875143
84.59000000	11135.32723788	11232.52308697	11654.57979590	11248.41504047	12072.04652019	11898.96682488	11623.76296228	218.86750025	-78.84850229	131.58572663
84.60000000	11128.62196685	11232.38992970	11655.39406882	11248.93000913	12069.92067664	11872.92038525	11627.45456883	218.45784396	-78.95966453	133.10737751
